SplineFontDB: 3.2
FontName: Serarif
FullName: Serarif
FamilyName: Serarif
Weight: Regular
Copyright: Copyright (c) 2021, nahkd\nOFL 1.1 License
UComments: "2021-11-27: Created with FontForge (http://fontforge.org)"
Version: 1.100
ItalicAngle: 0
UnderlinePosition: -100
UnderlineWidth: 50
Ascent: 700
Descent: 300
InvalidEm: 0
LayerCount: 2
Layer: 0 0 "Back" 1
Layer: 1 0 "Fore" 0
XUID: [1021 954 989402786 6896]
StyleMap: 0x0000
FSType: 0
OS2Version: 0
OS2_WeightWidthSlopeOnly: 0
OS2_UseTypoMetrics: 1
CreationTime: 1638001122
ModificationTime: 1638067319
PfmFamily: 17
TTFWeight: 400
TTFWidth: 5
LineGap: 90
VLineGap: 0
OS2TypoAscent: 0
OS2TypoAOffset: 1
OS2TypoDescent: 0
OS2TypoDOffset: 1
OS2TypoLinegap: 90
OS2WinAscent: 0
OS2WinAOffset: 1
OS2WinDescent: 0
OS2WinDOffset: 1
HheadAscent: 0
HheadAOffset: 1
HheadDescent: 0
HheadDOffset: 1
OS2Vendor: 'PfEd'
Lookup: 258 0 0 "'kern' Horizontal Kerning in Latin lookup 0" { "'kern' Horizontal Kerning in Latin lookup 0-1" [150,15,6] } ['kern' ('DFLT' <'dflt' > 'latn' <'dflt' > ) ]
MarkAttachClasses: 1
DEI: 91125

StartChar: a
Encoding: 97 97 0
Width: 435
Flags: HW
LayerCount: 2
Fore
SplineSet
185.888671875 370.370117188 m 2
 186.141601562 370.28125 l 2
 227.702148438 370.28125 266.083984375 356.560546875 297 333.405273438 c 1
 297 370.370117188 l 1
 371.07421875 370.370117188 l 1
 371.07421875 185.184570312 l 1
 371.07421875 0 l 1
 297 0 l 1
 297 36.9638671875 l 1
 266.083984375 13.80859375 227.548828125 0 185.987304688 0 c 2
 185.888671875 0 l 2
 83.6826171875 0 0.7041015625 82.978515625 0.7041015625 185.184570312 c 0
 0.7041015625 287.390625 83.6826171875 370.370117188 185.888671875 370.370117188 c 2
185.81640625 296.295898438 m 2
 185.795898438 296.295898438 l 2
 124.5234375 296.295898438 74.77734375 246.229492188 74.77734375 184.560546875 c 2
 74.77734375 184.534179688 l 2
 74.8037109375 122.88671875 124.5390625 72.84375 185.795898438 72.84375 c 2
 185.81640625 72.84375 l 2
 247.048828125 72.873046875 296.7578125 122.904296875 296.783203125 184.534179688 c 2
 296.782226562 184.559570312 l 2
 296.782226562 246.2109375 247.065429688 296.267578125 185.81640625 296.295898438 c 2
EndSplineSet
Validated: 1
EndChar

StartChar: b
Encoding: 98 98 1
Width: 426
Flags: HW
LayerCount: 2
Fore
SplineSet
0 629.629882812 m 1
 74.0732421875 629.629882812 l 1
 74.0732421875 333.1171875 l 1
 104.983398438 356.393554688 143.563476562 370.305664062 185.184570312 370.37109375 c 0
 287.391601562 370.37109375 370.370117188 287.391601562 370.370117188 185.185546875 c 0
 370.370117188 82.9794921875 287.391601562 0 185.184570312 0 c 0
 143.563476562 0.0654296875 104.983398438 13.978515625 74.0732421875 37.2548828125 c 1
 74.0732421875 0 l 1
 0 0 l 1
 0 185.185546875 l 1
 0 629.629882812 l 1
185.112304688 296.296875 m 2
 185.091796875 296.296875 l 2
 123.819335938 296.296875 74.0732421875 246.229492188 74.0732421875 184.560546875 c 2
 74.0732421875 184.534179688 l 2
 74.099609375 122.887695312 123.834960938 72.8447265625 185.091796875 72.8447265625 c 2
 185.112304688 72.8447265625 l 2
 246.344726562 72.873046875 296.053710938 122.905273438 296.079101562 184.534179688 c 2
 296.078125 184.560546875 l 2
 296.078125 246.211914062 246.361328125 296.267578125 185.112304688 296.296875 c 2
EndSplineSet
Validated: 1
EndChar

StartChar: s
Encoding: 115 115 2
Width: 278
Flags: HW
LayerCount: 2
Fore
SplineSet
110.888671875 370.111328125 m 0
 156.681640625 370.0859375 195.981445312 342.379882812 212.958007812 302.764648438 c 1
 144.887695312 273.612304688 l 2
 139.225585938 286.80078125 126.137695312 296.0234375 110.888671875 296.037109375 c 0
 90.4482421875 296.037109375 73.8515625 279.44140625 73.8515625 259 c 0
 73.8515625 238.55859375 90.4482421875 221.962890625 110.888671875 221.962890625 c 0
 172.212890625 221.962890625 222 172.17578125 222 110.8515625 c 0
 222 49.5283203125 172.212890625 -0.2587890625 110.888671875 -0.2587890625 c 0
 65.0966796875 -0.234375 25.7958984375 27.4716796875 8.8203125 67.0869140625 c 1
 76.890625 96.2392578125 l 2
 82.552734375 83.05078125 95.6396484375 73.8291015625 110.888671875 73.814453125 c 0
 131.330078125 73.814453125 147.92578125 90.41015625 147.92578125 110.8515625 c 0
 147.92578125 131.29296875 131.330078125 147.888671875 110.888671875 147.888671875 c 0
 49.5654296875 147.888671875 -0.2216796875 197.67578125 -0.2216796875 259 c 0
 -0.2216796875 320.32421875 49.5654296875 370.111328125 110.888671875 370.111328125 c 0
EndSplineSet
EndChar

StartChar: d
Encoding: 100 100 3
Width: 432
Flags: HW
LayerCount: 2
Fore
SplineSet
296.92578125 630.444335938 m 1
 371 630.444335938 l 1
 371 186 l 1
 371 0.814453125 l 1
 296.92578125 0.814453125 l 1
 296.92578125 37.779296875 l 1
 266.009765625 14.6240234375 227.474609375 0.814453125 185.913085938 0.814453125 c 2
 185.814453125 0.814453125 l 2
 83.6083984375 0.814453125 0.6298828125 83.7939453125 0.6298828125 186 c 0
 0.6298828125 288.206054688 83.6083984375 371.185546875 185.814453125 371.185546875 c 2
 186.067382812 371.096679688 l 2
 227.627929688 371.096679688 266.009765625 357.375976562 296.92578125 334.220703125 c 1
 296.92578125 630.444335938 l 1
185.7421875 297.111328125 m 2
 185.721679688 297.111328125 l 2
 124.44921875 297.111328125 74.703125 247.043945312 74.703125 185.375 c 2
 74.703125 185.348632812 l 2
 74.7294921875 123.702148438 124.46484375 73.6591796875 185.721679688 73.6591796875 c 2
 185.7421875 73.6591796875 l 2
 246.974609375 73.6875 296.68359375 123.719726562 296.708984375 185.348632812 c 2
 296.708007812 185.375 l 2
 296.708007812 247.026367188 246.991210938 297.08203125 185.7421875 297.111328125 c 2
EndSplineSet
Validated: 1
EndChar

StartChar: c
Encoding: 99 99 4
Width: 398
Flags: HW
LayerCount: 2
Fore
SplineSet
184.846679688 370.185546875 m 0
 239.208984375 370.18359375 288.110351562 346.780273438 322 309.421875 c 1
 260.801757812 265.729492188 l 2
 240.943359375 284.546875 214.169921875 296.091796875 184.774414062 296.111328125 c 2
 184.75390625 296.111328125 l 2
 123.481445312 296.111328125 73.7353515625 246.043945312 73.7353515625 184.375 c 2
 73.7353515625 184.348632812 l 2
 73.76171875 122.702148438 123.497070312 72.6591796875 184.75390625 72.6591796875 c 2
 184.774414062 72.6591796875 l 2
 214.440429688 72.826171875 241.404296875 84.724609375 261.235351562 103.981445312 c 2
 322 60.5791015625 l 1
 288.110351562 23.220703125 239.208984375 -0.1826171875 184.846679688 -0.1845703125 c 0
 82.640625 -0.1845703125 -0.337890625 82.7939453125 -0.337890625 185 c 0
 -0.337890625 287.206054688 82.640625 370.185546875 184.846679688 370.185546875 c 0
EndSplineSet
EndChar

StartChar: e
Encoding: 101 101 5
Width: 434
Flags: HW
LayerCount: 2
Fore
SplineSet
185.814453125 370.1484375 m 0
 288.021484375 370.1484375 371 287.168945312 371 184.962890625 c 2
 371 147.92578125 l 1
 80.9248046875 147.92578125 l 1
 95.9267578125 104.1484375 137.190429688 72.6806640625 185.7421875 72.6220703125 c 0
 215.408203125 72.7890625 242.372070312 84.6875 262.203125 103.944335938 c 2
 322.967773438 60.5419921875 l 1
 289.078125 23.18359375 240.176757812 -0.2197265625 185.814453125 -0.2216796875 c 0
 83.6083984375 -0.2216796875 0.6298828125 82.7568359375 0.6298828125 184.962890625 c 0
 0.6298828125 287.168945312 83.6083984375 370.1484375 185.814453125 370.1484375 c 0
185.740234375 296.07421875 m 0
 137.611328125 296.045898438 96.6376953125 265.162109375 81.2841796875 222 c 1
 290.124023438 222 l 1
 274.779296875 265.139648438 233.838867188 296.013671875 185.740234375 296.07421875 c 0
EndSplineSet
EndChar

StartChar: f
Encoding: 102 102 6
Width: 303
Flags: HW
LayerCount: 2
Fore
SplineSet
203.5 629.629882812 m 2
 266 629.629882812 l 1
 266 555.555664062 l 1
 203.5 555.555664062 l 2
 172.837890625 555.555664062 147.944335938 530.662109375 147.944335938 500 c 2
 147.944335938 383.030273438 l 1
 147.944335938 370.37109375 l 1
 222.018554688 370.37109375 l 1
 222.018554688 296.296875 l 1
 147.944335938 296.296875 l 1
 147.944335938 0 l 1
 73.8701171875 0 l 1
 73.8701171875 296.296875 l 1
 -0.203125 296.296875 l 1
 -0.203125 370.37109375 l 1
 73.8701171875 370.37109375 l 1
 73.8701171875 500 l 2
 73.8701171875 571.544921875 131.956054688 629.629882812 203.5 629.629882812 c 2
EndSplineSet
EndChar

StartChar: g
Encoding: 103 103 7
Width: 434
Flags: HW
LayerCount: 2
Fore
SplineSet
184.88671875 370 m 0
 224.922851562 370.004882812 263.881835938 357.03515625 295.92578125 333.03515625 c 1
 295.92578125 370 l 1
 370 370 l 1
 370 189.573242188 l 2
 370.045898438 187.982421875 370.0703125 186.390625 370.07421875 184.798828125 c 0
 370.07421875 183.20703125 370.037109375 181.615234375 370 180.024414062 c 2
 370 -74.4599609375 l 1
 370.14453125 -74.4599609375 l 1
 370.14453125 -176.735351562 287.234375 -259.645507812 184.958984375 -259.645507812 c 0
 132.716796875 -259.643554688 82.90625 -237.575195312 47.806640625 -198.881835938 c 1
 108.5703125 -155.478515625 l 2
 129.109375 -175.422851562 156.491210938 -186.641601562 185.03125 -186.80078125 c 0
 246.334960938 -186.8125 296.0703125 -136.811523438 296.0703125 -75.111328125 c 2
 296.0703125 -75.037109375 l 1
 296.0703125 -74.962890625 l 1
 296.0703125 -74.888671875 l 1
 296.0703125 -74.8154296875 l 1
 296.0703125 -74.7412109375 l 1
 296.0703125 -74.6669921875 l 1
 296.0703125 -74.5927734375 l 1
 296.0703125 -74.5185546875 l 1
 296.0703125 -74.4443359375 l 1
 295.92578125 -74.4443359375 l 1
 295.92578125 36.59375 l 1
 263.881835938 12.59375 224.922851562 -0.3759765625 184.88671875 -0.3701171875 c 0
 82.6123046875 -0.3701171875 -0.298828125 82.5400390625 -0.2978515625 184.814453125 c 0
 -0.298828125 287.08984375 82.6123046875 370 184.88671875 370 c 0
184.814453125 295.92578125 m 0
 123.482421875 295.9375 73.76171875 245.891601562 73.775390625 184.163085938 c 0
 73.8017578125 122.462890625 123.510742188 72.4619140625 184.814453125 72.4736328125 c 0
 246.08984375 72.5029296875 295.755859375 122.4921875 295.78125 184.163085938 c 0
 295.794921875 245.86328125 246.118164062 295.896484375 184.814453125 295.92578125 c 0
EndSplineSet
Validated: 33
EndChar

StartChar: h
Encoding: 104 104 8
Width: 436
Flags: HW
LayerCount: 2
Fore
SplineSet
0 629.629882812 m 1
 74.0732421875 629.629882812 l 1
 74.0732421875 333.1171875 l 1
 105.000976562 356.407226562 143.607421875 370.322265625 185.256835938 370.37109375 c 0
 287.463867188 370.37109375 370.442382812 287.391601562 370.442382812 185.185546875 c 1
 370.370117188 185.185546875 l 1
 370.370117188 0 l 1
 296.295898438 0 l 1
 296.295898438 185.185546875 l 1
 296.151367188 185.185546875 l 2
 295.810546875 246.544921875 246.22265625 296.26953125 185.184570312 296.296875 c 2
 185.162109375 296.28515625 l 2
 124.100585938 296.28515625 74.4873046875 246.561523438 74.146484375 185.185546875 c 2
 74.0732421875 185.185546875 l 1
 74.0732421875 0 l 1
 0 0 l 1
 0 629.629882812 l 1
EndSplineSet
Validated: 1
EndChar

StartChar: i
Encoding: 105 105 9
Width: 143
Flags: HW
LayerCount: 2
Fore
SplineSet
-0.07421875 0 m 1
 -0.07421875 370.37109375 l 1
 73.9990234375 370.37109375 l 1
 73.9990234375 0 l 1
 -0.07421875 0 l 1
-0.07421875 444.4453125 m 0
 -0.07421875 464.899414062 16.5078125 481.481445312 36.962890625 481.481445312 c 0
 57.4169921875 481.481445312 74 464.899414062 74 444.4453125 c 0
 74 423.990234375 57.4169921875 407.408203125 36.962890625 407.408203125 c 0
 16.5078125 407.408203125 -0.07421875 423.990234375 -0.07421875 444.4453125 c 0
EndSplineSet
EndChar

StartChar: j
Encoding: 106 106 10
Width: 202
Flags: HW
LayerCount: 2
Fore
SplineSet
55.5556640625 370 m 1
 129.629882812 370 l 1
 129.629882812 -111.481445312 l 1
 128.254882812 -111.481445312 l 1
 129.1484375 -117.569335938 129.614257812 -123.669921875 129.62890625 -130 c 0
 129.62890625 -201.544921875 71.5439453125 -259.629882812 0 -259.629882812 c 1
 0 -185.555664062 l 1
 30.6611328125 -185.555664062 55.5556640625 -160.662109375 55.5556640625 -130 c 2
 55.5556640625 -111.481445312 l 1
 55.5556640625 -13.029296875 l 1
 55.5556640625 370 l 1
55.5546875 444.07421875 m 0
 55.5546875 464.529296875 72.13671875 481.111328125 92.591796875 481.111328125 c 0
 113.046875 481.111328125 129.62890625 464.529296875 129.62890625 444.07421875 c 0
 129.62890625 423.619140625 113.046875 407.037109375 92.591796875 407.037109375 c 0
 72.13671875 407.037109375 55.5546875 423.619140625 55.5546875 444.07421875 c 0
EndSplineSet
EndChar

StartChar: k
Encoding: 107 107 11
Width: 313
Flags: HW
LayerCount: 2
Fore
SplineSet
0.4052734375 629.629882812 m 1
 74.478515625 629.629882812 l 1
 74.478515625 259.259765625 l 1
 185.58984375 370.37109375 l 1
 237.962890625 317.998046875 l 1
 123.668945312 203.704101562 l 1
 275 52.373046875 l 1
 222.626953125 0 l 1
 74.478515625 148.1484375 l 1
 74.478515625 0 l 1
 0.4052734375 0 l 1
 0.4052734375 629.629882812 l 1
EndSplineSet
EndChar

StartChar: l
Encoding: 108 108 12
Width: 146
Flags: HW
LayerCount: 2
Fore
SplineSet
-0.0732421875 629.629882812 m 1
 74 629.629882812 l 1
 74 0 l 1
 -0.0732421875 0 l 1
 -0.0732421875 629.629882812 l 1
EndSplineSet
EndChar

StartChar: L
Encoding: 76 76 13
Width: 442
Flags: HW
LayerCount: 2
Fore
SplineSet
0 629.629882812 m 1
 74.0732421875 629.629882812 l 1
 74.0732421875 74.07421875 l 1
 370.370117188 74.07421875 l 1
 370.370117188 0 l 1
 74.0732421875 0 l 1
 0 0 l 1
 0 629.629882812 l 1
EndSplineSet
Validated: 1
EndChar

StartChar: I
Encoding: 73 73 14
Width: 132
Flags: HW
LayerCount: 2
Fore
SplineSet
0 629.629882812 m 1
 74.0732421875 629.629882812 l 1
 74.0732421875 0 l 1
 0 0 l 1
 0 629.629882812 l 1
EndSplineSet
Validated: 1
EndChar

StartChar: m
Encoding: 109 109 15
Width: 738
Flags: HW
LayerCount: 2
Fore
SplineSet
0.259765625 370.37109375 m 1
 74.3330078125 370.37109375 l 1
 74.3330078125 333.189453125 l 1
 105.25 356.439453125 143.829101562 370.327148438 185.444335938 370.37109375 c 0
 246.09765625 370.359375 299.887695312 341.282226562 333.666992188 296.15234375 c 1
 367.431640625 341.263671875 421.193359375 370.334960938 481.814453125 370.37109375 c 0
 584.021484375 370.37109375 667 287.391601562 667 185.185546875 c 1
 666.92578125 185.185546875 l 1
 666.92578125 0 l 1
 592.8515625 0 l 1
 592.8515625 185.185546875 l 1
 592.70703125 185.185546875 l 2
 592.366210938 246.544921875 542.779296875 296.268554688 481.741210938 296.296875 c 0
 420.6796875 296.296875 371.049804688 246.561523438 370.708984375 185.185546875 c 2
 370.634765625 185.185546875 l 1
 370.560546875 185.185546875 l 1
 370.560546875 0 l 1
 296.487304688 0 l 1
 296.487304688 185.185546875 l 1
 296.338867188 185.185546875 l 2
 295.997070312 246.544921875 246.41015625 296.268554688 185.372070312 296.296875 c 2
 185.349609375 296.28515625 l 2
 124.288085938 296.28515625 74.6748046875 246.561523438 74.3330078125 185.185546875 c 2
 74.3330078125 0 l 1
 0.259765625 0 l 1
 0.259765625 370.37109375 l 1
EndSplineSet
EndChar

StartChar: q
Encoding: 113 113 16
Width: 426
Flags: HW
LayerCount: 2
Fore
SplineSet
185.184570312 370.185546875 m 0
 226.74609375 370.185546875 265.307617188 356.375976562 296.223632812 333.220703125 c 1
 296.223632812 370.185546875 l 1
 370.297851562 370.185546875 l 1
 370.297851562 189.774414062 l 2
 370.342773438 188.162109375 370.366210938 186.623046875 370.370117188 185 c 0
 370.366210938 183.377929688 370.342773438 181.837890625 370.297851562 180.225585938 c 2
 370.297851562 -259.444335938 l 1
 296.223632812 -259.444335938 l 1
 296.223632812 36.779296875 l 1
 265.307617188 13.6240234375 226.74609375 -0.185546875 185.184570312 -0.185546875 c 0
 82.978515625 -0.185546875 0 82.7939453125 0 185 c 0
 0 287.206054688 82.978515625 370.185546875 185.184570312 370.185546875 c 0
185.112304688 296.111328125 m 2
 185.091796875 296.111328125 l 2
 123.819335938 296.111328125 74.0732421875 246.043945312 74.0732421875 184.375 c 2
 74.0732421875 184.348632812 l 2
 74.099609375 122.702148438 123.834960938 72.6591796875 185.091796875 72.6591796875 c 2
 185.112304688 72.6591796875 l 2
 246.345703125 72.6884765625 296.053710938 122.719726562 296.079101562 184.348632812 c 2
 296.078125 184.375 l 2
 296.078125 246.026367188 246.361328125 296.08203125 185.112304688 296.111328125 c 2
EndSplineSet
Validated: 1
EndChar

StartChar: n
Encoding: 110 110 17
Width: 441
Flags: HW
LayerCount: 2
Fore
SplineSet
-0.3720703125 370.37109375 m 1
 73.703125 370.37109375 l 1
 73.703125 333.189453125 l 1
 104.620117188 356.439453125 143.198242188 370.327148438 184.814453125 370.37109375 c 0
 287.021484375 370.37109375 370 287.391601562 370 185.185546875 c 1
 369.92578125 185.185546875 l 1
 369.92578125 0 l 1
 295.850585938 0 l 1
 295.850585938 185.185546875 l 1
 295.70703125 185.185546875 l 2
 295.365234375 246.544921875 245.778320312 296.268554688 184.740234375 296.296875 c 2
 184.717773438 296.28515625 l 2
 123.65625 296.28515625 74.04296875 246.561523438 73.701171875 185.185546875 c 2
 73.701171875 0 l 1
 -0.3720703125 0 l 1
 -0.3720703125 185.185546875 l 1
 -0.3720703125 370.37109375 l 1
EndSplineSet
EndChar

StartChar: o
Encoding: 111 111 18
Width: 423
Flags: HW
LayerCount: 2
Fore
SplineSet
184.814453125 370.185546875 m 0
 287.021484375 370.185546875 370 287.206054688 370 185 c 0
 370 82.7939453125 287.021484375 -0.1845703125 184.814453125 -0.1845703125 c 0
 82.6083984375 -0.1845703125 -0.3701171875 82.7939453125 -0.3701171875 185 c 0
 -0.3701171875 287.206054688 82.6083984375 370.185546875 184.814453125 370.185546875 c 0
184.7421875 296.111328125 m 2
 184.721679688 296.111328125 l 2
 123.44921875 296.111328125 73.7041015625 246.043945312 73.7041015625 184.375 c 2
 73.7041015625 184.349609375 l 2
 73.7294921875 122.702148438 123.46484375 72.6591796875 184.721679688 72.6591796875 c 2
 184.7421875 72.6591796875 l 2
 245.975585938 72.6884765625 295.68359375 122.719726562 295.708984375 184.349609375 c 2
 295.708007812 184.375 l 2
 295.708007812 246.026367188 245.991210938 296.08203125 184.7421875 296.111328125 c 2
EndSplineSet
EndChar

StartChar: p
Encoding: 112 112 19
Width: 391
Flags: HW
LayerCount: 2
Fore
SplineSet
0 370 m 1
 74.0732421875 370 l 1
 74.0732421875 332.74609375 l 1
 105.000976562 356.036132812 143.607421875 369.951171875 185.256835938 370 c 0
 287.463867188 370 370.442382812 287.020507812 370.442382812 184.814453125 c 0
 370.442382812 82.6083984375 287.463867188 -0.3701171875 185.256835938 -0.3701171875 c 0
 143.607421875 -0.322265625 105.000976562 13.59375 74.0732421875 36.8837890625 c 1
 74.0732421875 -259.629882812 l 1
 0 -259.629882812 l 1
 0 370 l 1
185.184570312 295.92578125 m 2
 185.1640625 295.92578125 l 2
 123.891601562 295.92578125 74.1455078125 245.858398438 74.1455078125 184.189453125 c 2
 74.1455078125 184.163085938 l 2
 74.171875 122.516601562 123.907226562 72.4736328125 185.1640625 72.4736328125 c 2
 185.184570312 72.4736328125 l 2
 246.416992188 72.5029296875 296.125976562 122.534179688 296.151367188 184.163085938 c 2
 296.150390625 184.189453125 l 2
 296.150390625 245.840820312 246.43359375 295.896484375 185.184570312 295.92578125 c 2
EndSplineSet
Validated: 1
EndChar

StartChar: r
Encoding: 114 114 20
Width: 240
Flags: HW
LayerCount: 2
Fore
SplineSet
-0.1865234375 370.370117188 m 1
 73.888671875 370.370117188 l 1
 73.888671875 333.188476562 l 1
 104.805664062 356.438476562 143.384765625 370.326171875 185 370.370117188 c 1
 185 296.295898438 l 1
 184.963867188 296.295898438 l 1
 184.92578125 296.295898438 l 1
 184.903320312 296.284179688 l 2
 123.841796875 296.284179688 74.228515625 246.560546875 73.8876953125 185.184570312 c 2
 73.8876953125 0 l 1
 -0.1865234375 0 l 1
 -0.1865234375 185.184570312 l 1
 -0.1865234375 370.370117188 l 1
EndSplineSet
EndChar

StartChar: t
Encoding: 116 116 21
Width: 279
Flags: HW
LayerCount: 2
Fore
SplineSet
73.8515625 444.444335938 m 1
 147.92578125 444.444335938 l 1
 147.92578125 370.370117188 l 1
 222 370.370117188 l 1
 222 296.295898438 l 1
 147.92578125 296.295898438 l 1
 147.92578125 0 l 1
 73.8515625 0 l 1
 73.8515625 296.295898438 l 1
 -0.2216796875 296.295898438 l 1
 -0.2216796875 370.370117188 l 1
 73.8515625 370.370117188 l 1
 73.8515625 444.444335938 l 1
EndSplineSet
EndChar

StartChar: u
Encoding: 117 117 22
Width: 445
Flags: HW
LayerCount: 2
Fore
SplineSet
-0.2958984375 370.37109375 m 1
 73.7783203125 370.37109375 l 1
 73.7783203125 185.185546875 l 1
 73.9228515625 185.185546875 l 2
 74.263671875 123.826171875 123.850585938 74.1025390625 184.888671875 74.07421875 c 2
 184.909179688 74.0869140625 l 2
 245.970703125 74.0869140625 295.584960938 123.809570312 295.92578125 185.185546875 c 2
 295.92578125 370.37109375 l 1
 370 370.37109375 l 1
 370 185.185546875 l 1
 370 0 l 1
 295.92578125 0 l 1
 295.92578125 37.037109375 l 1
 264.993164062 13.837890625 226.418945312 0.0009765625 184.814453125 0 c 0
 82.6083984375 0 -0.3701171875 82.9794921875 -0.3701171875 185.185546875 c 1
 -0.2958984375 185.185546875 l 1
 -0.2958984375 370.37109375 l 1
EndSplineSet
EndChar

StartChar: quotesingle
Encoding: 39 39 24
Width: 136
Flags: HW
LayerCount: 2
Fore
SplineSet
9 481 m 1
 9 629.1484375 l 1
 83.0732421875 629.1484375 l 1
 83.0732421875 481 l 1
 9 481 l 1
EndSplineSet
EndChar

StartChar: w
Encoding: 119 119 25
Width: 688
Flags: HW
LayerCount: 2
Fore
SplineSet
64.517578125 370.370117188 m 1
 226.193359375 90.349609375 l 1
 275.961914062 176.50390625 l 1
 185.5390625 333.333007812 l 1
 249.703125 370.370117188 l 1
 318.78515625 250.72265625 l 1
 387.651367188 369.935546875 l 1
 451.815429688 332.8984375 l 1
 361.609375 176.576171875 l 1
 411.377929688 90.349609375 l 1
 572.836914062 369.935546875 l 1
 637 332.8984375 l 1
 444.798828125 0 l 1
 377.741210938 0 l 1
 318.713867188 102.357421875 l 1
 259.61328125 0 l 1
 192.555664062 0 l 1
 0.3544921875 333.333007812 l 1
 64.517578125 370.370117188 l 1
EndSplineSet
EndChar

StartChar: v
Encoding: 118 118 26
Width: 509
Flags: HW
LayerCount: 2
Fore
SplineSet
64.1630859375 370.370117188 m 1
 225.838867188 90.349609375 l 1
 387.296875 369.935546875 l 1
 451.4609375 332.8984375 l 1
 259.258789062 0 l 1
 192.201171875 0 l 1
 0 333.333007812 l 1
 64.1630859375 370.370117188 l 1
EndSplineSet
EndChar

StartChar: x
Encoding: 120 120 27
Width: 424
Flags: HW
LayerCount: 2
Fore
SplineSet
52.3720703125 368.5625 m 1
 184.31640625 236.618164062 l 1
 316.188476562 368.5625 l 1
 368.561523438 316.189453125 l 1
 236.689453125 184.245117188 l 1
 368.561523438 52.373046875 l 1
 316.188476562 0 l 1
 184.31640625 131.872070312 l 1
 52.3720703125 0 l 1
 0 52.373046875 l 1
 131.944335938 184.245117188 l 1
 0 316.189453125 l 1
 52.3720703125 368.5625 l 1
EndSplineSet
Validated: 1
EndChar

StartChar: y
Encoding: 121 121 28
Width: 562
Flags: HW
LayerCount: 2
Fore
SplineSet
64.1630859375 368.037109375 m 1
 249.348632812 47.2900390625 l 1
 434.533203125 368.037109375 l 1
 498.697265625 331 l 1
 162.470703125 -251.393554688 l 1
 98.306640625 -214.356445312 l 1
 206.596679688 -26.7841796875 l 1
 0 331 l 1
 64.1630859375 368.037109375 l 1
EndSplineSet
Validated: 1
EndChar

StartChar: z
Encoding: 122 122 29
Width: 400
Flags: HW
LayerCount: 2
Fore
SplineSet
0 370.370117188 m 1
 327.401367188 370.370117188 l 1
 327.401367188 335.936523438 l 2
 327.401367188 322.975585938 327.401367188 296.295898438 327.401367188 296.295898438 c 1
 104.745117188 74.0732421875 l 1
 327.401367188 74.0732421875 l 1
 327.401367188 0 l 1
 0 0 l 1
 0 74.0732421875 l 1
 222.221679688 296.295898438 l 1
 0 296.295898438 l 1
 0 370.370117188 l 1
EndSplineSet
Validated: 1
EndChar

StartChar: A
Encoding: 65 65 30
Width: 496
Flags: HW
LayerCount: 2
Fore
SplineSet
163.483398438 629.33984375 m 1
 274.594726562 629.33984375 l 1
 438.078125 19.2421875 l 1
 366.536132812 0 l 1
 287.25390625 296.006835938 l 1
 150.82421875 296.006835938 l 1
 71.5419921875 0 l 1
 0 19.2421875 l 1
 163.483398438 629.33984375 l 1
219.0390625 550.4921875 m 1
 170.716796875 370.081054688 l 1
 267.360351562 370.081054688 l 1
 219.0390625 550.4921875 l 1
EndSplineSet
Validated: 1
EndChar

StartChar: B
Encoding: 66 66 31
Width: 432
Flags: HW
LayerCount: 2
Fore
SplineSet
0 629.629882812 m 1
 74.0732421875 629.629882812 l 1
 185.184570312 629.629882812 l 1
 185.184570312 628.544921875 l 2
 268.369140625 619.245117188 333.305664062 548.606445312 333.333007812 462.963867188 c 0
 333.198242188 415.837890625 313.505859375 373.2734375 281.900390625 343.02734375 c 1
 335.04296875 310.481445312 370.340820312 252.004882812 370.370117188 185.185546875 c 0
 370.370117188 82.9794921875 287.391601562 0 185.184570312 0 c 2
 74.0732421875 0 l 1
 0 0 l 1
 0 629.629882812 l 1
74.0732421875 555.555664062 m 1
 74.0732421875 370.37109375 l 1
 185.184570312 370.37109375 l 1
 185.184570312 372.251953125 l 2
 227.389648438 380.866210938 259.25390625 418.23046875 259.258789062 462.963867188 c 0
 259.25390625 507.696289062 227.389648438 545.060546875 185.184570312 553.67578125 c 2
 185.184570312 555.555664062 l 1
 74.0732421875 555.555664062 l 1
74.0732421875 296.296875 m 1
 74.0732421875 74.07421875 l 1
 185.184570312 74.07421875 l 2
 246.508789062 74.07421875 296.295898438 123.861328125 296.295898438 185.185546875 c 0
 296.295898438 246.509765625 246.508789062 296.296875 185.184570312 296.296875 c 2
 74.0732421875 296.296875 l 1
EndSplineSet
Validated: 1
EndChar

StartChar: C
Encoding: 67 67 32
Width: 444
Flags: HW
LayerCount: 2
Fore
SplineSet
222.221679688 629.62890625 m 0
 282.676757812 629.54296875 337.557617188 595.211914062 377.603515625 539.568359375 c 1
 318.6484375 497.467773438 l 2
 292.74609375 533.607421875 259.000976562 555.522460938 222.221679688 555.5546875 c 0
 140.45703125 555.5546875 74.0732421875 447.682617188 74.0732421875 314.814453125 c 0
 74.0732421875 181.946289062 140.45703125 74.0732421875 222.221679688 74.0732421875 c 0
 256.265625 74.2666015625 287.743164062 93.259765625 312.716796875 124.854492188 c 2
 373.19140625 84.5625 l 1
 333.622070312 32.2939453125 280.501953125 0.21484375 222.221679688 0 c 0
 99.57421875 0 0 141.063476562 0 314.814453125 c 0
 0 488.565429688 99.57421875 629.62890625 222.221679688 629.62890625 c 0
EndSplineSet
Validated: 1
EndChar

StartChar: D
Encoding: 68 68 33
Width: 444
Flags: HW
LayerCount: 2
Fore
SplineSet
0 629.629882812 m 1
 74.0732421875 629.629882812 l 1
 148.147460938 629.629882812 l 1
 148.147460938 629.268554688 l 1
 150.579101562 629.446289062 152.930664062 629.564453125 155.381835938 629.629882812 c 0
 278.029296875 629.629882812 377.603515625 488.56640625 377.603515625 314.815429688 c 0
 377.603515625 141.064453125 278.029296875 0 155.381835938 0 c 0
 152.930664062 0.06640625 150.579101562 0.1845703125 148.147460938 0.36328125 c 1
 148.147460938 0 l 1
 74.0732421875 0 l 1
 0 0 l 1
 0 629.629882812 l 1
74.0732421875 555.555664062 m 1
 74.0732421875 74.07421875 l 1
 148.147460938 74.07421875 l 1
 148.147460938 74.5810546875 l 1
 150.5703125 74.3154296875 152.928710938 74.1484375 155.381835938 74.07421875 c 0
 237.146484375 74.07421875 303.529296875 181.947265625 303.529296875 314.815429688 c 0
 303.529296875 447.68359375 237.146484375 555.555664062 155.381835938 555.555664062 c 0
 152.92578125 555.505859375 150.573242188 555.364257812 148.147460938 555.122070312 c 1
 148.147460938 555.555664062 l 1
 74.0732421875 555.555664062 l 1
EndSplineSet
Validated: 1
EndChar

StartChar: E
Encoding: 69 69 34
Width: 448
Flags: W
LayerCount: 2
Fore
SplineSet
0 629.629882812 m 1
 74.0732421875 629.629882812 l 1
 370.370117188 629.629882812 l 1
 370.370117188 555.555664062 l 1
 74.0732421875 555.555664062 l 1
 74.0732421875 370.37109375 l 1
 296.295898438 370.37109375 l 1
 296.295898438 296.296875 l 1
 74.0732421875 296.296875 l 1
 74.0732421875 74.07421875 l 1
 370.370117188 74.07421875 l 1
 370.370117188 0 l 1
 74.0732421875 0 l 1
 0 0 l 1
 0 629.629882812 l 1
EndSplineSet
EndChar

StartChar: F
Encoding: 70 70 35
Width: 444
Flags: HW
LayerCount: 2
Fore
SplineSet
0 629.62890625 m 1
 74.0732421875 629.62890625 l 1
 370.370117188 629.62890625 l 1
 370.370117188 555.5546875 l 1
 74.0732421875 555.5546875 l 1
 74.0732421875 370.370117188 l 1
 296.295898438 370.370117188 l 1
 296.295898438 296.295898438 l 1
 74.0732421875 296.295898438 l 1
 74.0732421875 0 l 1
 0 0 l 1
 0 629.62890625 l 1
EndSplineSet
Validated: 1
EndChar

StartChar: G
Encoding: 71 71 36
Width: 506
Flags: HW
LayerCount: 2
Fore
SplineSet
222.221679688 629.62890625 m 0
 282.676757812 629.54296875 337.557617188 595.211914062 377.603515625 539.568359375 c 1
 318.6484375 497.467773438 l 2
 292.74609375 533.607421875 259.001953125 555.522460938 222.221679688 555.5546875 c 0
 140.45703125 555.5546875 74.07421875 447.682617188 74.07421875 314.814453125 c 1
 74.0693359375 314.931640625 l 1
 74.0693359375 308.661132812 74.2177734375 302.446289062 74.5078125 296.295898438 c 2
 74.94140625 296.295898438 l 2
 80.8232421875 172.404296875 144.53515625 74.439453125 222.221679688 74.0732421875 c 0
 299.307617188 74.5048828125 362.618164062 171.048828125 369.28515625 293.619140625 c 1
 213.46875 293.619140625 l 1
 213.46875 370.370117188 l 1
 444.444335938 370.370117188 l 1
 444.444335938 293.619140625 l 1
 443.79296875 293.619140625 l 2
 435.99609375 129.93359375 339.708984375 0.109375 222.221679688 0 c 0
 104.24609375 0.36328125 7.7216796875 131.498046875 0.8671875 296.295898438 c 2
 0.43359375 296.295898438 l 2
 0.1591796875 302.501953125 0.0166015625 308.516601562 0 314.814453125 c 0
 0 488.565429688 99.57421875 629.62890625 222.221679688 629.62890625 c 0
EndSplineSet
Validated: 1
EndChar

StartChar: H
Encoding: 72 72 37
Width: 448
Flags: HW
LayerCount: 2
Fore
SplineSet
0 629.629882812 m 1
 74.0732421875 629.629882812 l 1
 74.0732421875 370.37109375 l 1
 296.295898438 370.37109375 l 1
 296.295898438 629.629882812 l 1
 370.370117188 629.629882812 l 1
 370.370117188 0 l 1
 296.295898438 0 l 1
 296.295898438 296.296875 l 1
 74.0732421875 296.296875 l 1
 74.0732421875 0 l 1
 0 0 l 1
 0 629.629882812 l 1
EndSplineSet
Validated: 1
EndChar

StartChar: J
Encoding: 74 74 38
Width: 262
Flags: HW
LayerCount: 2
Fore
SplineSet
111.110351562 629.629882812 m 1
 185.184570312 629.629882812 l 1
 185.184570312 148.1484375 l 1
 183.810546875 148.1484375 l 1
 184.704101562 142.061523438 185.169921875 135.9609375 185.184570312 129.629882812 c 0
 185.184570312 58.0859375 127.099609375 0 55.5556640625 0 c 2
 0 0 l 1
 0 74.07421875 l 1
 55.5556640625 74.07421875 l 2
 86.216796875 74.07421875 111.110351562 98.9677734375 111.110351562 129.629882812 c 2
 111.110351562 148.1484375 l 1
 111.110351562 246.600585938 l 1
 111.110351562 629.629882812 l 1
EndSplineSet
Validated: 1
EndChar

StartChar: K
Encoding: 75 75 39
Width: 460
Flags: HW
LayerCount: 2
Fore
SplineSet
0 0 m 1
 0 219.916992188 0 404.89453125 0 629.629882812 c 1
 74.0732421875 629.629882812 l 1
 74.0732421875 370.37109375 l 1
 333.333007812 629.629882812 l 1
 385.705078125 577.2578125 l 1
 123.263671875 314.815429688 l 1
 385.705078125 52.373046875 l 1
 333.333007812 0 l 1
 74.0732421875 259.259765625 l 1
 74.0732421875 0 l 1
 0 0 l 1
EndSplineSet
Validated: 1
EndChar

StartChar: M
Encoding: 77 77 40
Width: 682
Flags: HW
LayerCount: 2
Fore
SplineSet
0 629.629882812 m 1
 74.0732421875 629.629882812 l 1
 299.985351562 403.71875 l 1
 525.8984375 629.629882812 l 1
 599.97265625 629.629882812 l 1
 599.97265625 0 l 1
 525.897460938 0 l 1
 525.897460938 524.884765625 l 1
 300.4921875 299.479492188 l 1
 299.985351562 299.986328125 l 1
 299.478515625 299.479492188 l 1
 74.0732421875 524.884765625 l 1
 74.0732421875 0 l 1
 0 0 l 1
 0 629.629882812 l 1
EndSplineSet
Validated: 1
EndChar

StartChar: N
Encoding: 78 78 41
Width: 502
Flags: HW
LayerCount: 2
Fore
SplineSet
351.779296875 630.064453125 m 1
 425.853515625 630.064453125 l 1
 425.853515625 0.4345703125 l 1
 351.779296875 0.4345703125 l 1
 74.0732421875 481.482421875 l 1
 74.0732421875 0 l 1
 0 0 l 1
 0 629.629882812 l 1
 74.0732421875 629.629882812 l 1
 351.779296875 148.655273438 l 1
 351.779296875 630.064453125 l 1
EndSplineSet
Validated: 1
EndChar

StartChar: O
Encoding: 79 79 42
Width: 507
Flags: HW
LayerCount: 2
Fore
SplineSet
222.221679688 629.62890625 m 0
 344.869140625 629.62890625 444.444335938 488.565429688 444.444335938 314.814453125 c 0
 444.444335938 141.063476562 344.869140625 0 222.221679688 0 c 0
 99.57421875 0 0 141.063476562 0 314.814453125 c 0
 0 488.565429688 99.57421875 629.62890625 222.221679688 629.62890625 c 0
222.221679688 555.5546875 m 0
 140.45703125 555.5546875 74.0732421875 447.682617188 74.0732421875 314.814453125 c 0
 74.0732421875 181.946289062 140.45703125 74.0732421875 222.221679688 74.0732421875 c 0
 303.987304688 74.0732421875 370.370117188 181.946289062 370.370117188 314.814453125 c 0
 370.370117188 447.682617188 303.987304688 555.5546875 222.221679688 555.5546875 c 0
EndSplineSet
Validated: 1
EndChar

StartChar: P
Encoding: 80 80 43
Width: 394
Flags: HW
LayerCount: 2
Fore
SplineSet
0 629.629882812 m 1
 74.0732421875 629.629882812 l 1
 185.184570312 629.629882812 l 1
 185.184570312 628.544921875 l 2
 268.369140625 619.245117188 333.305664062 548.606445312 333.333007812 462.963867188 c 0
 333.305664062 377.3203125 268.369140625 306.681640625 185.184570312 297.381835938 c 2
 185.184570312 296.296875 l 1
 74.0732421875 296.296875 l 1
 74.0732421875 0 l 1
 0 0 l 1
 0 629.629882812 l 1
74.0732421875 555.555664062 m 1
 74.0732421875 370.37109375 l 1
 185.184570312 370.37109375 l 1
 185.184570312 372.251953125 l 2
 227.389648438 380.866210938 259.25390625 418.23046875 259.258789062 462.963867188 c 0
 259.25390625 507.696289062 227.389648438 545.060546875 185.184570312 553.674804688 c 2
 185.184570312 555.555664062 l 1
 74.0732421875 555.555664062 l 1
EndSplineSet
Validated: 1
EndChar

StartChar: Q
Encoding: 81 81 44
Width: 522
Flags: HW
LayerCount: 2
Fore
SplineSet
222.221679688 629.629882812 m 0
 344.869140625 629.629882812 444.444335938 488.56640625 444.444335938 314.815429688 c 0
 444.408203125 240.044921875 425.853515625 171.118164062 395.037109375 117.115234375 c 2
 459.779296875 52.373046875 l 1
 407.407226562 0 l 1
 349.970703125 57.4365234375 l 2
 313.876953125 21.4208984375 269.673828125 0.06640625 222.221679688 0 c 0
 99.57421875 0 0 141.064453125 0 314.815429688 c 0
 0 488.56640625 99.57421875 629.629882812 222.221679688 629.629882812 c 0
222.221679688 555.555664062 m 0
 140.45703125 555.555664062 74.0732421875 447.68359375 74.0732421875 314.815429688 c 0
 74.0732421875 181.947265625 140.45703125 74.07421875 222.221679688 74.07421875 c 2
 222.416015625 74.2275390625 l 2
 250.33203125 74.2275390625 276.455078125 86.8017578125 298.755859375 108.65234375 c 1
 224.102539062 183.3046875 l 1
 276.475585938 235.677734375 l 1
 341.073242188 171.080078125 l 1
 359.430664062 211.166015625 370.370117188 261.0546875 370.370117188 314.815429688 c 0
 370.370117188 447.68359375 303.987304688 555.555664062 222.221679688 555.555664062 c 0
EndSplineSet
Validated: 1
EndChar

StartChar: R
Encoding: 82 82 45
Width: 396
Flags: HW
LayerCount: 2
Fore
SplineSet
0 629.629882812 m 1
 74.0732421875 629.629882812 l 1
 185.184570312 629.629882812 l 1
 185.184570312 628.544921875 l 2
 268.369140625 619.245117188 333.305664062 548.606445312 333.333007812 462.963867188 c 0
 333.305664062 377.3203125 268.369140625 306.682617188 185.184570312 297.381835938 c 2
 185.184570312 296.296875 l 1
 104.745117188 296.296875 l 1
 348.668945312 52.373046875 l 1
 296.295898438 0 l 1
 74.0732421875 222.22265625 l 1
 74.0732421875 0 l 1
 0 0 l 1
 0 629.629882812 l 1
74.0732421875 555.555664062 m 1
 74.0732421875 370.37109375 l 1
 185.184570312 370.37109375 l 1
 185.184570312 372.251953125 l 2
 227.389648438 380.866210938 259.25390625 418.23046875 259.258789062 462.963867188 c 0
 259.25390625 507.696289062 227.389648438 545.060546875 185.184570312 553.674804688 c 2
 185.184570312 555.555664062 l 1
 74.0732421875 555.555664062 l 1
EndSplineSet
Validated: 1
EndChar

StartChar: S
Encoding: 83 83 46
Width: 410
Flags: HW
LayerCount: 2
Fore
SplineSet
202.533203125 626.702148438 m 2
 202.534179688 626.702148438 l 2
 264.552734375 620.9609375 316.0078125 583.655273438 342.63671875 532.151367188 c 2
 279.724609375 492.133789062 l 1
 265.369140625 525.065429688 234.006835938 549.3984375 195.70703125 552.943359375 c 0
 139.6953125 558.126953125 90.0859375 516.923828125 84.9013671875 460.912109375 c 0
 84.6396484375 457.928710938 84.5263671875 454.93359375 84.509765625 451.940429688 c 0
 113.493164062 351.020507812 286.9765625 350.84765625 332.81640625 212.541015625 c 0
 336.734375 194.96875 337.942382812 176.897460938 336.356445312 158.963867188 c 0
 327.401367188 62.2158203125 241.712890625 -8.9541015625 144.96484375 0 c 0
 78.90234375 6.115234375 24.84375 48.0458984375 0 104.80859375 c 2
 63.8349609375 145.393554688 l 1
 75.576171875 107.06640625 109.404296875 77.6826171875 151.791015625 73.7587890625 c 0
 207.803710938 68.5751953125 257.412109375 109.778320312 262.596679688 165.790039062 c 0
 262.858398438 168.7734375 262.97265625 171.76953125 262.989257812 174.76171875 c 0
 278.44921875 268.173828125 68.1162109375 287.068359375 14.681640625 414.16015625 c 0
 10.763671875 431.733398438 9.5556640625 449.8046875 11.1416015625 467.73828125 c 0
 20.0966796875 564.486328125 105.78515625 635.65625 202.533203125 626.702148438 c 2
EndSplineSet
Validated: 33
EndChar

StartChar: T
Encoding: 84 84 47
Width: 440
Flags: HW
LayerCount: 2
Fore
SplineSet
0 629.62890625 m 1
 370.370117188 629.62890625 l 1
 370.370117188 555.5546875 l 1
 222.221679688 555.5546875 l 1
 222.221679688 0 l 1
 148.147460938 0 l 1
 148.147460938 555.5546875 l 1
 0 555.5546875 l 1
 0 629.62890625 l 1
EndSplineSet
Validated: 1
EndChar

StartChar: U
Encoding: 85 85 48
Width: 456
Flags: HW
LayerCount: 2
Fore
SplineSet
0 626.0703125 m 1
 74.0732421875 626.0703125 l 1
 74.0732421875 181.625976562 l 2
 74.0732421875 120.301757812 123.861328125 70.5146484375 185.184570312 70.5146484375 c 0
 246.508789062 70.5146484375 296.295898438 120.301757812 296.295898438 181.625976562 c 2
 296.295898438 626.0703125 l 1
 370.370117188 626.0703125 l 1
 370.370117188 181.625976562 l 1
 370.370117188 -3.55859375 l 1
 296.295898438 -3.55859375 l 1
 296.295898438 33.623046875 l 1
 265.37890625 10.3720703125 226.80078125 -3.515625 185.184570312 -3.55859375 c 0
 82.978515625 -3.55859375 0 79.419921875 0 181.625976562 c 2
 0 626.0703125 l 1
EndSplineSet
Validated: 1
EndChar

StartChar: V
Encoding: 86 86 49
Width: 508
Flags: HW
LayerCount: 2
Fore
SplineSet
366.53515625 629.33984375 m 1
 438.078125 610.09765625 l 1
 274.59375 0 l 1
 163.482421875 0 l 1
 0 610.09765625 l 1
 71.5419921875 629.33984375 l 1
 120.66015625 445.830078125 169.888671875 262.349609375 219.0390625 78.84765625 c 0
 366.53515625 629.33984375 l 1
EndSplineSet
Validated: 1
EndChar

StartChar: W
Encoding: 87 87 50
Width: 734
Flags: HW
LayerCount: 2
Fore
SplineSet
71.5419921875 629.33984375 m 1
 120.659179688 445.830078125 169.888671875 262.349609375 219.0390625 78.8486328125 c 1
 291.810546875 350.405273438 l 1
 222.221679688 610.09765625 l 1
 293.763671875 629.33984375 l 1
 305.87890625 584.077148438 318.024414062 538.822265625 330.150390625 493.561523438 c 1
 366.536132812 629.33984375 l 1
 438.078125 610.09765625 l 1
 368.489257812 350.405273438 l 2
 392.750976562 259.88671875 417.015625 169.370117188 441.260742188 78.8486328125 c 1
 588.7578125 629.33984375 l 1
 660.30078125 610.09765625 l 1
 496.81640625 0 l 1
 385.705078125 0 l 1
 330.150390625 207.3203125 l 1
 274.594726562 0 l 1
 163.483398438 0 l 1
 0 610.09765625 l 1
 71.5419921875 629.33984375 l 1
EndSplineSet
Validated: 1
EndChar

StartChar: X
Encoding: 88 88 51
Width: 694
Flags: HW
LayerCount: 2
Fore
SplineSet
52.3720703125 629.918945312 m 1
 314.958984375 367.33203125 l 1
 577.545898438 629.918945312 l 1
 629.918945312 577.546875 l 1
 367.33203125 314.959960938 l 1
 629.918945312 52.373046875 l 1
 577.545898438 0 l 1
 314.958984375 262.586914062 l 1
 52.3720703125 0 l 1
 0 52.373046875 l 1
 262.5859375 314.959960938 l 1
 0 577.546875 l 1
 52.3720703125 629.918945312 l 1
EndSplineSet
Validated: 1
EndChar

StartChar: Y
Encoding: 89 89 52
Width: 618
Flags: HW
LayerCount: 2
Fore
SplineSet
52.3720703125 629.629882812 m 1
 274.594726562 407.408203125 l 1
 496.81640625 629.629882812 l 1
 549.189453125 577.2578125 l 1
 311.631835938 339.69921875 l 1
 311.631835938 0 l 1
 237.557617188 0 l 1
 237.557617188 339.69921875 l 1
 0 577.2578125 l 1
 52.3720703125 629.629882812 l 1
EndSplineSet
Validated: 1
EndChar

StartChar: Z
Encoding: 90 90 53
Width: 674
Flags: HW
LayerCount: 2
Fore
SplineSet
0 629.629882812 m 1
 592.591796875 629.629882812 l 1
 592.591796875 555.556640625 l 1
 585.212890625 555.556640625 l 1
 585.719726562 555.049804688 l 1
 104.745117188 74.07421875 l 1
 592.591796875 74.07421875 l 1
 592.591796875 0 l 1
 2.240234375 0 l 1
 2.240234375 71.83203125 l 1
 0 74.07421875 l 1
 481.481445312 555.555664062 l 1
 0 555.555664062 l 1
 0 629.629882812 l 1
EndSplineSet
Validated: 1
EndChar

StartChar: zero
Encoding: 48 48 54
Width: 502
Flags: HW
LayerCount: 2
Fore
SplineSet
222.221679688 629.629882812 m 0
 344.869140625 629.629882812 444.444335938 488.56640625 444.444335938 314.815429688 c 0
 444.444335938 141.064453125 344.869140625 0 222.221679688 0 c 0
 99.57421875 0 0 141.064453125 0 314.815429688 c 0
 0 488.56640625 99.57421875 629.629882812 222.221679688 629.629882812 c 0
222.221679688 555.555664062 m 0
 140.45703125 555.555664062 74.0732421875 447.68359375 74.0732421875 314.815429688 c 0
 74.0732421875 181.947265625 140.45703125 74.07421875 222.221679688 74.07421875 c 0
 303.987304688 74.07421875 370.370117188 181.947265625 370.370117188 314.815429688 c 0
 370.370117188 447.68359375 303.987304688 555.555664062 222.221679688 555.555664062 c 0
222.221679688 388.889648438 m 1
 222.221679688 388.88671875 l 2
 242.676757812 388.88671875 259.258789062 372.3046875 259.258789062 351.849609375 c 2
 259.258789062 278.24609375 l 2
 259.262695312 277.9375 259.262695312 277.616210938 259.258789062 277.307617188 c 0
 259.258789062 256.852539062 242.676757812 240.270507812 222.221679688 240.270507812 c 0
 201.766601562 240.270507812 185.184570312 256.852539062 185.184570312 277.307617188 c 2
 185.184570312 351.852539062 l 2
 185.184570312 372.307617188 201.766601562 388.889648438 222.221679688 388.889648438 c 1
EndSplineSet
EndChar

StartChar: one
Encoding: 49 49 55
Width: 262
Flags: HW
LayerCount: 2
Fore
SplineSet
127.92578125 629.629882812 m 1
 202 629.629882812 l 1
 202 0 l 1
 127.92578125 0 l 1
 127.92578125 544.0546875 l 1
 36.6357421875 491.392578125 l 1
 -0.4013671875 555.555664062 l 1
 127.92578125 629.629882812 l 1
EndSplineSet
EndChar

StartChar: two
Encoding: 50 50 56
Width: 400
Flags: HW
LayerCount: 2
Fore
SplineSet
166.666015625 629.629882812 m 0
 251.444335938 629.4921875 329.555664062 563.420898438 332.03125 481.482421875 c 0
 331.97265625 403.33203125 310.736328125 382.884765625 278.284179688 331.1640625 c 2
 91.5791015625 74.07421875 l 1
 333.333007812 74.07421875 l 1
 333.333007812 0 l 1
 0 0 l 1
 0 74.07421875 l 1
 210.502929688 363.932617188 l 2
 234.876953125 400.178710938 261.553710938 421.956054688 257.377929688 481.481445312 c 0
 248.579101562 524.588867188 210.662109375 555.55078125 166.666015625 555.555664062 c 0
 115.529296875 555.555664062 74.07421875 514.100585938 74.07421875 462.962890625 c 0
 74.07421875 460.111328125 74.2470703125 457.245117188 74.5078125 454.427734375 c 1
 0.072265625 465.278320312 l 2
 1.3115234375 556.2578125 75.392578125 629.629882812 166.666015625 629.629882812 c 0
EndSplineSet
EndChar

StartChar: three
Encoding: 51 51 57
Width: 400
Flags: HW
LayerCount: 2
Fore
SplineSet
152.921875 629.629882812 m 0
 244.908203125 629.629882812 319.588867188 554.94921875 319.588867188 462.963867188 c 0
 319.583984375 411.98828125 296.741210938 366.372070312 260.6328125 335.79296875 c 1
 307.6171875 302.198242188 338.096679688 247.29296875 338.107421875 185.185546875 c 0
 338.107421875 82.9794921875 255.12890625 0 152.921875 0 c 0
 95.7646484375 0.0126953125 44.6787109375 25.861328125 10.7060546875 66.6240234375 c 2
 67.7080078125 114.221679688 l 1
 88.0380859375 89.7275390625 118.653320312 74.162109375 152.921875 74.07421875 c 0
 214.24609375 74.07421875 264.033203125 123.861328125 264.033203125 185.185546875 c 0
 264.033203125 246.509765625 214.24609375 296.296875 152.921875 296.296875 c 2
 115.884765625 296.296875 l 1
 115.884765625 370.37109375 l 1
 152.921875 370.37109375 l 2
 204.025390625 370.37109375 245.514648438 411.860351562 245.514648438 462.963867188 c 0
 245.514648438 514.06640625 204.025390625 555.555664062 152.921875 555.555664062 c 0
 115.265625 555.423828125 82.9150390625 532.836914062 68.576171875 500.434570312 c 2
 0 527.850585938 l 1
 25.22265625 587.52734375 84.162109375 629.384765625 152.921875 629.629882812 c 0
EndSplineSet
EndChar

StartChar: four
Encoding: 52 52 58
Width: 444
Flags: HW
LayerCount: 2
Fore
SplineSet
37.037109375 629.62890625 m 1
 111.110351562 629.62890625 l 1
 111.110351562 480.499023438 l 2
 111.110351562 407.407226562 79.8603515625 370.370117188 79.8603515625 370.370117188 c 1
 222.221679688 370.370117188 l 1
 222.221679688 555.5546875 l 1
 296.295898438 555.5546875 l 1
 296.295898438 370.370117188 l 1
 370.370117188 370.370117188 l 1
 370.370117188 296.295898438 l 1
 296.295898438 296.295898438 l 1
 296.295898438 0 l 1
 222.221679688 0 l 1
 222.221679688 296.295898438 l 1
 111.110351562 296.295898438 l 1
 37.037109375 296.295898438 l 1
 0 296.295898438 l 1
 0 370.370117188 l 1
 0 370.370117188 37.037109375 420.501953125 37.037109375 481.481445312 c 2
 37.037109375 629.62890625 l 1
EndSplineSet
EndChar

StartChar: five
Encoding: 53 53 59
Width: 478
Flags: HW
LayerCount: 2
Fore
SplineSet
0 629.629882812 m 1
 333.333007812 629.629882812 l 1
 333.333007812 555.555664062 l 1
 74.0732421875 555.555664062 l 1
 74.0732421875 414.063476562 l 1
 107.796875 433.780273438 146.12109375 444.259765625 185.184570312 444.4453125 c 0
 307.915039062 444.4453125 407.407226562 344.953125 407.407226562 222.22265625 c 0
 407.407226562 99.4931640625 307.915039062 0 185.184570312 0 c 0
 113.091796875 0.177734375 45.564453125 35.31640625 4.05078125 94.2568359375 c 1
 74.94140625 123.770507812 l 2
 102.948242188 92.279296875 143.041015625 74.2041015625 185.184570312 74.07421875 c 0
 267.004882812 74.07421875 333.333007812 140.40234375 333.333007812 222.22265625 c 0
 333.333007812 304.04296875 267.004882812 370.37109375 185.184570312 370.37109375 c 0
 143.041015625 370.240234375 102.948242188 352.166015625 74.94140625 320.674804688 c 2
 0 353.08203125 l 1
 0 370.37109375 l 1
 0 555.555664062 l 1
 0 629.629882812 l 1
EndSplineSet
EndChar

StartChar: six
Encoding: 54 54 60
Width: 442
Flags: HW
LayerCount: 2
Fore
SplineSet
313.150390625 629.629882812 m 1
 370.297851562 582.538085938 l 1
 195.3125 370.008789062 l 1
 293.47265625 364.6328125 370.333007812 283.493164062 370.370117188 185.185546875 c 0
 370.370117188 82.9111328125 287.459960938 0 185.184570312 0 c 0
 82.91015625 0 0 82.9111328125 0 185.185546875 c 0
 0.8642578125 233.609375 27.5146484375 283.858398438 65.6826171875 328.993164062 c 2
 313.150390625 629.629882812 l 1
185.184570312 296.296875 m 0
 123.819335938 296.296875 74.0732421875 246.55078125 74.0732421875 185.185546875 c 0
 74.0732421875 123.8203125 123.819335938 74.07421875 185.184570312 74.07421875 c 0
 246.549804688 74.07421875 296.295898438 123.8203125 296.295898438 185.185546875 c 0
 296.295898438 246.55078125 246.549804688 296.296875 185.184570312 296.296875 c 0
EndSplineSet
EndChar

StartChar: nine
Encoding: 57 57 61
Width: 442
Flags: HW
LayerCount: 2
Fore
SplineSet
57.21875 0 m 1
 0.072265625 47.0927734375 l 1
 175.057617188 259.62109375 l 1
 76.8974609375 264.998046875 0.0361328125 346.137695312 0 444.4453125 c 0
 0 546.719726562 82.91015625 629.629882812 185.184570312 629.629882812 c 0
 287.459960938 629.629882812 370.370117188 546.719726562 370.370117188 444.4453125 c 0
 369.504882812 396.021484375 342.85546875 345.772460938 304.6875 300.63671875 c 2
 57.21875 0 l 1
185.184570312 333.333984375 m 0
 246.549804688 333.333984375 296.295898438 383.080078125 296.295898438 444.4453125 c 0
 296.295898438 505.809570312 246.549804688 555.555664062 185.184570312 555.555664062 c 0
 123.8203125 555.555664062 74.0732421875 505.809570312 74.0732421875 444.4453125 c 0
 74.0732421875 383.080078125 123.8203125 333.333984375 185.184570312 333.333984375 c 0
EndSplineSet
EndChar

StartChar: seven
Encoding: 55 55 62
Width: 446
Flags: HW
LayerCount: 2
Fore
SplineSet
0 631.076171875 m 1
 370.370117188 631.076171875 l 1
 370.370117188 557.001953125 l 1
 82.537109375 0 l 1
 14.68359375 29.8759765625 l 1
 286.96484375 557.001953125 l 1
 0 557.001953125 l 1
 0 631.076171875 l 1
EndSplineSet
EndChar

StartChar: eight
Encoding: 56 56 63
Width: 442
Flags: HW
LayerCount: 2
Fore
SplineSet
185.184570312 629.62890625 m 0
 277.170898438 629.62890625 351.8515625 554.948242188 351.8515625 462.962890625 c 0
 351.850585938 411.948242188 328.9765625 366.301757812 292.823242188 335.719726562 c 1
 339.817382812 302.15234375 370.318359375 247.271484375 370.370117188 185.184570312 c 0
 370.370117188 82.978515625 287.391601562 0 185.184570312 0 c 0
 82.978515625 0 0 82.978515625 0 185.184570312 c 0
 0.044921875 247.3125 30.578125 302.225585938 77.6181640625 335.791992188 c 1
 41.4560546875 366.346679688 18.560546875 411.969726562 18.5185546875 462.962890625 c 0
 18.5185546875 554.948242188 93.19921875 629.62890625 185.184570312 629.62890625 c 0
185.184570312 555.5546875 m 0
 134.08203125 555.5546875 92.591796875 514.065429688 92.591796875 462.962890625 c 0
 92.591796875 411.859375 134.08203125 370.370117188 185.184570312 370.370117188 c 0
 236.288085938 370.370117188 277.77734375 411.859375 277.77734375 462.962890625 c 0
 277.77734375 514.065429688 236.288085938 555.5546875 185.184570312 555.5546875 c 0
185.184570312 296.295898438 m 0
 123.861328125 296.295898438 74.0732421875 246.508789062 74.0732421875 185.184570312 c 0
 74.0732421875 123.860351562 123.861328125 74.0732421875 185.184570312 74.0732421875 c 0
 246.508789062 74.0732421875 296.295898438 123.860351562 296.295898438 185.184570312 c 0
 296.295898438 246.508789062 246.508789062 296.295898438 185.184570312 296.295898438 c 0
EndSplineSet
EndChar

StartChar: period
Encoding: 46 46 64
Width: 138
Flags: HW
LayerCount: 2
Fore
SplineSet
-0.0732421875 0 m 1
 -0.0732421875 74.0732421875 l 1
 74 74.0732421875 l 1
 74 0 l 1
 -0.0732421875 0 l 1
EndSplineSet
EndChar

StartChar: exclam
Encoding: 33 33 65
Width: 160
Flags: HW
LayerCount: 2
Fore
SplineSet
32 111.111328125 m 1
 32 629.629882812 l 1
 106.073242188 629.629882812 l 1
 106.073242188 111.111328125 l 1
 32 111.111328125 l 1
32 37.037109375 m 0
 32 57.4921875 48.58203125 74.07421875 69.037109375 74.07421875 c 0
 89.4912109375 74.07421875 106.07421875 57.4921875 106.07421875 37.037109375 c 0
 106.07421875 16.58203125 89.4912109375 0 69.037109375 0 c 0
 48.58203125 0 32 16.58203125 32 37.037109375 c 0
EndSplineSet
EndChar

StartChar: comma
Encoding: 44 44 66
Width: 142
Flags: HW
LayerCount: 2
Fore
SplineSet
18 75 m 1
 92.0732421875 75 l 1
 92.0732421875 -35.169921875 l 2
 92.076171875 -35.3291015625 92.0771484375 -35.4716796875 92.0771484375 -35.6318359375 c 0
 92.0771484375 -35.7919921875 92.076171875 -35.951171875 92.0732421875 -36.1103515625 c 0
 92.0732421875 -56.5517578125 75.4775390625 -73.1474609375 55.037109375 -73.1474609375 c 0
 34.595703125 -73.1474609375 18 -56.5517578125 18 -36.1103515625 c 2
 18 75 l 1
EndSplineSet
EndChar

StartChar: colon
Encoding: 58 58 67
Width: 134
Flags: HW
LayerCount: 2
Fore
SplineSet
17 37.037109375 m 0
 17 57.4921875 33.58203125 74.07421875 54.037109375 74.07421875 c 0
 74.4912109375 74.07421875 91.0732421875 57.4921875 91.0732421875 37.037109375 c 0
 91.0732421875 16.5830078125 74.4912109375 0 54.037109375 0 c 0
 33.58203125 0 17 16.5830078125 17 37.037109375 c 0
17 333.333984375 m 0
 17 353.7890625 33.58203125 370.37109375 54.037109375 370.37109375 c 0
 74.4912109375 370.37109375 91.0732421875 353.7890625 91.0732421875 333.333984375 c 0
 91.0732421875 312.87890625 74.4912109375 296.296875 54.037109375 296.296875 c 0
 33.58203125 296.296875 17 312.87890625 17 333.333984375 c 0
EndSplineSet
EndChar

StartChar: semicolon
Encoding: 59 59 68
Width: 138
Flags: HW
LayerCount: 2
Fore
SplineSet
20 332.037109375 m 0
 20 352.4921875 36.58203125 369.07421875 57.037109375 369.07421875 c 0
 77.4921875 369.07421875 94.07421875 352.4921875 94.07421875 332.037109375 c 0
 94.07421875 311.58203125 77.4921875 295 57.037109375 295 c 0
 36.58203125 295 20 311.58203125 20 332.037109375 c 0
20 72.77734375 m 1
 94.07421875 72.775390625 l 1
 94.07421875 -37.3955078125 l 2
 94.076171875 -37.5546875 94.0771484375 -37.6962890625 94.0771484375 -37.85546875 c 0
 94.0771484375 -38.015625 94.076171875 -38.1748046875 94.07421875 -38.3330078125 c 0
 94.07421875 -58.7744140625 77.4775390625 -75.3701171875 57.0361328125 -75.3701171875 c 0
 36.5947265625 -75.3701171875 20 -58.7744140625 20 -38.3330078125 c 2
 20 72.77734375 l 1
EndSplineSet
EndChar

StartChar: quotedbl
Encoding: 34 34 69
Width: 307
Flags: HW
LayerCount: 2
Fore
SplineSet
24 481 m 1
 24 629.1484375 l 1
 98.0732421875 629.1484375 l 1
 98.0732421875 481 l 1
 24 481 l 1
172.145507812 481 m 1
 172.145507812 629.1484375 l 1
 246.219726562 629.1484375 l 1
 246.219726562 481 l 1
 172.145507812 481 l 1
EndSplineSet
EndChar

StartChar: numbersign
Encoding: 35 35 70
Width: 510
Flags: HW
LayerCount: 2
Fore
SplineSet
74.0732421875 629.629882812 m 1
 148.147460938 629.629882812 l 1
 148.147460938 518.518554688 l 1
 296.295898438 518.518554688 l 1
 296.295898438 629.629882812 l 1
 370.370117188 629.629882812 l 1
 370.370117188 518.518554688 l 1
 444.444335938 518.518554688 l 1
 444.444335938 444.4453125 l 1
 370.370117188 444.4453125 l 1
 370.370117188 185.185546875 l 1
 444.444335938 185.185546875 l 1
 444.444335938 111.111328125 l 1
 370.370117188 111.111328125 l 1
 370.370117188 0 l 1
 296.295898438 0 l 1
 296.295898438 111.111328125 l 1
 148.147460938 111.111328125 l 1
 148.147460938 0 l 1
 74.0732421875 0 l 1
 74.0732421875 111.111328125 l 1
 0 111.111328125 l 1
 0 185.185546875 l 1
 74.0732421875 185.185546875 l 1
 74.0732421875 444.4453125 l 1
 0 444.4453125 l 1
 0 518.518554688 l 1
 74.0732421875 518.518554688 l 1
 74.0732421875 629.629882812 l 1
148.147460938 444.4453125 m 1
 148.147460938 185.185546875 l 1
 296.295898438 185.185546875 l 1
 296.295898438 444.4453125 l 1
 148.147460938 444.4453125 l 1
EndSplineSet
EndChar

StartChar: dollar
Encoding: 36 36 71
Width: 410
Flags: HW
LayerCount: 2
Fore
SplineSet
148.1484375 664.134765625 m 1
 222.22265625 664.134765625 l 1
 222.22265625 620.876953125 l 2
 264.80078125 609.279296875 300.92578125 582.1328125 324.146484375 545.862304688 c 2
 265.190429688 500.216796875 l 1
 247.860351562 531.685546875 214.389648438 553.0234375 175.92578125 553.0234375 c 0
 119.674804688 553.0234375 74.07421875 507.422851562 74.07421875 451.171875 c 0
 74.0888671875 448.176757812 74.2490234375 445.18359375 74.5078125 442.202148438 c 0
 112.668945312 344.3828125 285.430664062 360.200195312 343.822265625 226.70703125 c 0
 349.340820312 209.5703125 352.211914062 191.6875 352.28515625 173.68359375 c 0
 352.28515625 92.3857421875 297.146484375 24.0078125 222.221679688 3.833984375 c 2
 222.221679688 -39.568359375 l 1
 148.147460938 -39.568359375 l 1
 148.147460938 0 l 2
 93.89453125 8.7607421875 47.982421875 42.380859375 22.3525390625 88.7587890625 c 2
 82.17578125 135.0546875 l 1
 97.3994140625 97.97265625 133.791992188 71.83203125 176.360351562 71.83203125 c 0
 232.611328125 71.83203125 278.211914062 117.432617188 278.211914062 173.68359375 c 0
 278.196289062 176.678710938 278.037109375 179.671875 277.778320312 182.653320312 c 0
 284.563476562 277.092773438 73.3837890625 276.521484375 8.4638671875 398.1484375 c 0
 2.9443359375 415.28515625 0.07421875 433.16796875 0 451.171875 c 0
 0 538.876953125 64.19140625 611.604492188 148.1484375 624.927734375 c 2
 148.1484375 664.134765625 l 1
EndSplineSet
EndChar

StartChar: percent
Encoding: 37 37 72
Width: 700
Flags: HW
LayerCount: 2
Fore
SplineSet
577.256835938 629.629882812 m 1
 629.62890625 577.2578125 l 1
 52.3720703125 0 l 1
 0 52.373046875 l 1
 577.256835938 629.629882812 l 1
163.483398438 629.629882812 m 0
 235.028320312 629.629882812 293.11328125 571.544921875 293.11328125 500 c 0
 293.11328125 428.456054688 235.028320312 370.37109375 163.483398438 370.37109375 c 0
 91.9384765625 370.37109375 33.853515625 428.456054688 33.853515625 500 c 0
 33.853515625 571.544921875 91.9384765625 629.629882812 163.483398438 629.629882812 c 0
163.483398438 555.555664062 m 0
 132.821289062 555.555664062 107.927734375 530.662109375 107.927734375 500 c 0
 107.927734375 469.338867188 132.821289062 444.4453125 163.483398438 444.4453125 c 0
 194.145507812 444.4453125 219.0390625 469.338867188 219.0390625 500 c 0
 219.0390625 530.662109375 194.145507812 555.555664062 163.483398438 555.555664062 c 0
459.779296875 259.259765625 m 0
 531.32421875 259.259765625 589.409179688 201.174804688 589.409179688 129.629882812 c 0
 589.409179688 58.0859375 531.32421875 0.0009765625 459.779296875 0 c 0
 388.235351562 0 330.150390625 58.0859375 330.150390625 129.629882812 c 0
 330.150390625 201.174804688 388.235351562 259.259765625 459.779296875 259.259765625 c 0
459.779296875 185.185546875 m 0
 429.118164062 185.185546875 404.224609375 160.291992188 404.224609375 129.629882812 c 0
 404.224609375 98.9677734375 429.118164062 74.07421875 459.779296875 74.07421875 c 0
 490.44140625 74.07421875 515.334960938 98.9677734375 515.334960938 129.629882812 c 0
 515.334960938 160.291992188 490.44140625 185.185546875 459.779296875 185.185546875 c 0
EndSplineSet
EndChar

StartChar: ampersand
Encoding: 38 38 73
Width: 594
Flags: HW
LayerCount: 2
Fore
SplineSet
222.221679688 629.629882812 m 2
 370.370117188 629.629882812 l 1
 370.370117188 555.555664062 l 1
 222.221679688 555.555664062 l 2
 171.119140625 555.555664062 129.62890625 514.06640625 129.62890625 462.963867188 c 0
 129.62890625 411.860351562 171.119140625 370.37109375 222.221679688 370.37109375 c 2
 518.518554688 370.37109375 l 1
 518.518554688 296.296875 l 1
 370.370117188 296.296875 l 1
 370.370117188 74.07421875 l 1
 370.370117188 0 l 1
 185.184570312 0 l 2
 82.978515625 0 0 82.9794921875 0 185.185546875 c 0
 0.1669921875 256.793945312 40.880859375 318.805664062 100.548828125 349.46484375 c 1
 72.7373046875 379.174804688 55.6611328125 419.122070312 55.5556640625 462.963867188 c 0
 55.5556640625 554.94921875 130.236328125 629.629882812 222.221679688 629.629882812 c 2
185.184570312 296.296875 m 2
 123.861328125 296.296875 74.07421875 246.509765625 74.07421875 185.185546875 c 0
 74.07421875 123.862304688 123.861328125 74.07421875 185.184570312 74.07421875 c 2
 296.295898438 74.07421875 l 1
 296.295898438 296.296875 l 1
 185.184570312 296.296875 l 2
EndSplineSet
EndChar

StartChar: at
Encoding: 64 64 74
Width: 698
Flags: HW
LayerCount: 2
Fore
SplineSet
314.814453125 629.629882812 m 1
 314.814453125 629.629882812 l 1
 488.681640625 629.629882812 629.62890625 488.682617188 629.62890625 314.815429688 c 0
 629.577148438 300.4140625 628.537109375 286.033203125 626.518554688 271.774414062 c 0
 619.416015625 233.125 617.65625 202.294921875 586.154296875 168.692382812 c 0
 551 135.651367188 522.9296875 124.717773438 478.732421875 114.65625 c 0
 473.94140625 112.399414062 468.614257812 111.111328125 462.962890625 111.111328125 c 0
 442.5078125 111.111328125 425.92578125 127.693359375 425.92578125 148.1484375 c 2
 425.92578125 166.594726562 l 1
 395.009765625 143.439453125 356.473632812 129.629882812 314.913085938 129.629882812 c 2
 314.814453125 129.629882812 l 2
 212.608398438 129.629882812 129.62890625 212.609375 129.62890625 314.815429688 c 0
 129.62890625 417.021484375 212.608398438 500 314.814453125 500 c 0
 417.021484375 500 500 417.021484375 500 314.815429688 c 2
 500.001953125 314.75 l 2
 500.001953125 312.30078125 499.954101562 309.86328125 499.859375 307.436523438 c 1
 500 307.436523438 l 1
 500 195.530273438 l 1
 514.676757812 200.288085938 528.248046875 208.629882812 538.483398438 227.720703125 c 0
 549.5234375 255.443359375 555.2890625 284.9765625 555.555664062 314.815429688 c 0
 555.555664062 447.772460938 447.771484375 555.555664062 314.814453125 555.555664062 c 0
 181.857421875 555.555664062 74.07421875 447.772460938 74.07421875 314.815429688 c 0
 74.07421875 181.857421875 181.857421875 74.07421875 314.814453125 74.07421875 c 2
 611.110351562 74.07421875 l 1
 611.110351562 0 l 1
 314.814453125 0 l 2
 140.947265625 0 0 140.948242188 0 314.815429688 c 0
 0 488.682617188 140.947265625 629.629882812 314.814453125 629.629882812 c 1
314.7421875 425.926757812 m 2
 314.721679688 425.926757812 l 2
 253.44921875 425.926757812 203.703125 375.859375 203.703125 314.190429688 c 2
 203.703125 314.1640625 l 2
 203.728515625 252.517578125 253.463867188 202.474609375 314.721679688 202.474609375 c 2
 314.7421875 202.474609375 l 2
 375.974609375 202.502929688 425.68359375 252.53515625 425.708984375 314.1640625 c 2
 425.708007812 314.190429688 l 2
 425.708007812 375.841796875 375.990234375 425.897460938 314.7421875 425.926757812 c 2
EndSplineSet
EndChar

StartChar: asterisk
Encoding: 42 42 75
Width: 438
Flags: HW
LayerCount: 2
Fore
SplineSet
148.147460938 518.518554688 m 1
 222.221679688 518.518554688 l 1
 222.221679688 422.743164062 l 1
 289.930664062 490.452148438 l 1
 342.302734375 438.079101562 l 1
 274.594726562 370.37109375 l 1
 370.370117188 370.37109375 l 1
 370.370117188 296.296875 l 1
 274.594726562 296.296875 l 1
 342.302734375 228.588867188 l 1
 289.930664062 176.215820312 l 1
 222.221679688 243.923828125 l 1
 222.221679688 148.1484375 l 1
 148.147460938 148.1484375 l 1
 148.147460938 243.923828125 l 1
 80.439453125 176.215820312 l 1
 28.06640625 228.588867188 l 1
 95.775390625 296.296875 l 1
 0 296.296875 l 1
 0 370.37109375 l 1
 95.775390625 370.37109375 l 1
 28.06640625 438.079101562 l 1
 80.439453125 490.452148438 l 1
 148.147460938 422.743164062 l 1
 148.147460938 518.518554688 l 1
EndSplineSet
EndChar

StartChar: plus
Encoding: 43 43 76
Width: 436
Flags: HW
LayerCount: 2
Fore
SplineSet
148.147460938 518.518554688 m 1
 222.221679688 518.518554688 l 1
 222.221679688 370.37109375 l 1
 370.370117188 370.37109375 l 1
 370.370117188 296.296875 l 1
 222.221679688 296.296875 l 1
 222.221679688 148.1484375 l 1
 148.147460938 148.1484375 l 1
 148.147460938 296.296875 l 1
 0 296.296875 l 1
 0 370.37109375 l 1
 148.147460938 370.37109375 l 1
 148.147460938 518.518554688 l 1
EndSplineSet
EndChar

StartChar: hyphen
Encoding: 45 45 77
Width: 448
Flags: HW
LayerCount: 2
Fore
SplineSet
-0.0009765625 370.373046875 m 1
 370.369140625 370.37890625 l 1
 370.37109375 296.3046875 l 1
 0 296.299804688 l 1
 -0.0009765625 370.373046875 l 1
EndSplineSet
EndChar

StartChar: bracketleft
Encoding: 91 91 78
Width: 254
Flags: HW
LayerCount: 2
Fore
SplineSet
0 629.629882812 m 1
 74.0732421875 629.629882812 l 1
 185.184570312 629.629882812 l 1
 185.184570312 555.555664062 l 1
 74.0732421875 555.555664062 l 1
 74.0732421875 74.07421875 l 1
 185.184570312 74.07421875 l 1
 185.184570312 0 l 1
 74.0732421875 0 l 1
 0 0 l 1
 0 629.629882812 l 1
EndSplineSet
EndChar

StartChar: bracketright
Encoding: 93 93 79
Width: 254
Flags: HW
LayerCount: 2
Fore
SplineSet
185.185546875 629.629882812 m 1
 185.185546875 0 l 1
 111.110351562 0 l 1
 0 0 l 1
 0 74.07421875 l 1
 111.110351562 74.07421875 l 1
 111.110351562 555.555664062 l 1
 0 555.555664062 l 1
 0 629.629882812 l 1
 111.110351562 629.629882812 l 1
 185.185546875 629.629882812 l 1
EndSplineSet
EndChar

StartChar: asciicircum
Encoding: 94 94 80
Width: 390
Flags: HW
LayerCount: 2
Fore
SplineSet
320.749023438 532.334960938 m 1
 283.711914062 468.185546875 l 1
 160.361328125 539.40234375 l 1
 37.048828125 468.1796875 l 1
 0 532.336914062 l 1
 160.374023438 624.927734375 l 1
 320.749023438 532.334960938 l 1
EndSplineSet
EndChar

StartChar: underscore
Encoding: 95 95 81
Width: 439
Flags: HW
LayerCount: 2
Fore
SplineSet
0 0 m 1
 0 74.07421875 l 1
 370.370117188 74.07421875 l 1
 370.370117188 0 l 1
 0 0 l 1
EndSplineSet
EndChar

StartChar: slash
Encoding: 47 47 82
Width: 696
Flags: HW
LayerCount: 2
Fore
SplineSet
577.256835938 629.629882812 m 1
 629.62890625 577.2578125 l 1
 52.3720703125 0 l 1
 0 52.373046875 l 1
 577.256835938 629.629882812 l 1
EndSplineSet
EndChar

StartChar: backslash
Encoding: 92 92 83
Width: 698
Flags: HW
LayerCount: 2
Fore
SplineSet
52.3720703125 629.629882812 m 1
 629.62890625 52.373046875 l 1
 577.256835938 0 l 1
 0 577.2578125 l 1
 52.3720703125 629.629882812 l 1
EndSplineSet
EndChar

StartChar: equal
Encoding: 61 61 84
Width: 434
Flags: HW
LayerCount: 2
Fore
SplineSet
37.0361328125 333.333984375 m 1
 37.0361328125 407.408203125 l 1
 333.333007812 407.408203125 l 1
 333.333007812 333.333984375 l 1
 37.0361328125 333.333984375 l 1
37.0361328125 148.1484375 m 1
 37.0361328125 222.22265625 l 1
 333.333007812 222.22265625 l 1
 333.333007812 148.1484375 l 1
 37.0361328125 148.1484375 l 1
EndSplineSet
EndChar

StartChar: parenleft
Encoding: 40 40 85
Width: 300
Flags: HW
LayerCount: 2
Fore
SplineSet
222.221679688 629.62890625 m 1
 222.221679688 555.5546875 l 1
 140.45703125 555.5546875 74.0732421875 447.682617188 74.0732421875 314.814453125 c 0
 74.0732421875 181.946289062 140.45703125 74.0732421875 222.221679688 74.0732421875 c 1
 222.221679688 0 l 1
 99.57421875 0 0 141.063476562 0 314.814453125 c 0
 0 488.565429688 99.57421875 629.62890625 222.221679688 629.62890625 c 1
EndSplineSet
EndChar

StartChar: parenright
Encoding: 41 41 86
Width: 298
Flags: HW
LayerCount: 2
Fore
SplineSet
0 629.62890625 m 1
 122.647460938 629.62890625 222.221679688 488.565429688 222.221679688 314.814453125 c 0
 222.221679688 141.063476562 122.647460938 0 0 0 c 1
 0 74.0732421875 l 1
 81.7646484375 74.0732421875 148.147460938 181.946289062 148.147460938 314.814453125 c 0
 148.147460938 447.682617188 81.7646484375 555.5546875 0 555.5546875 c 1
 0 629.62890625 l 1
EndSplineSet
EndChar

StartChar: less
Encoding: 60 60 87
Width: 442
Flags: HW
LayerCount: 2
Fore
SplineSet
314.958984375 629.918945312 m 1
 367.33203125 577.546875 l 1
 104.74609375 314.959960938 l 1
 367.33203125 52.373046875 l 1
 314.958984375 0 l 1
 0 314.959960938 l 1
 314.958984375 629.918945312 l 1
EndSplineSet
EndChar

StartChar: greater
Encoding: 62 62 88
Width: 442
Flags: HW
LayerCount: 2
Fore
SplineSet
52.373046875 629.918945312 m 1
 367.33203125 314.959960938 l 1
 52.373046875 0 l 1
 0 52.373046875 l 1
 262.5859375 314.959960938 l 1
 0 577.546875 l 1
 52.373046875 629.918945312 l 1
EndSplineSet
EndChar

StartChar: question
Encoding: 63 63 89
Width: 396
Flags: HW
LayerCount: 2
Fore
SplineSet
166.59375 629.629882812 m 0
 251.373046875 629.4921875 329.481445312 563.420898438 331.958984375 481.482421875 c 0
 331.900390625 403.33203125 310.6640625 382.884765625 278.211914062 331.1640625 c 2
 203.630859375 228.443359375 l 1
 203.630859375 111.111328125 l 1
 129.557617188 111.111328125 l 1
 129.05078125 251.880859375 l 1
 210.430664062 363.932617188 l 2
 234.8046875 400.178710938 261.477539062 421.956054688 257.305664062 481.481445312 c 0
 248.506835938 524.587890625 210.590820312 555.55078125 166.59375 555.555664062 c 0
 115.45703125 555.555664062 74.001953125 514.100585938 74.001953125 462.962890625 c 0
 74.001953125 460.110351562 74.1552734375 457.245117188 74.435546875 454.427734375 c 1
 0 465.278320312 l 2
 1.240234375 556.2578125 75.3212890625 629.629882812 166.59375 629.629882812 c 0
203.630859375 37.037109375 m 0
 203.630859375 16.5966796875 187.036132812 0.0009765625 166.594726562 0 c 0
 146.153320312 0.0009765625 129.557617188 16.5966796875 129.557617188 37.037109375 c 0
 129.557617188 57.478515625 146.153320312 74.07421875 166.594726562 74.07421875 c 0
 187.03515625 74.07421875 203.630859375 57.478515625 203.630859375 37.037109375 c 0
EndSplineSet
EndChar
